{"title":"G.I. Joe Retaliation 2013 TS NEWSOURCE XviD AC3 - TODE","uid":8337135,"size":732660692,"categoryP":"video","categoryS":"movies","magnet":"?xt=urn:btih:45984e5c53b199a20c7fb4e190b977b85e2345f7&amp;dn=G.I.+Joe+Retaliation+2013+TS+NEWSOURCE+XviD+AC3+-+TODE&amp;tr=udp%3A%2F%2Ftracker.openbittorrent.com%3A80&amp;tr=udp%3A%2F%2Fopen.demonii.com%3A1337&amp;tr=udp%3A%2F%2Ftracker.coppersurfer.tk%3A6969&amp;tr=udp%3A%2F%2Fexodus.desync.com%3A6969","seeders":5,"leechers":0,"uploader":"xxxlavalxxx","files":1,"time":1365010951,"description":"\n &lt;a href=&quot;\nhttp://www.imdb.com/title/tt1583421/&quot; rel=&quot;nofollow&quot; target=&quot;_NEW&quot;&gt;\nhttp://www.imdb.com/title/tt1583421/&lt;/a&gt;\n\n\nPlot: The G.I. Joes are not only fighting their mortal enemy Cobra; they are forced to contend with threats from within the government that jeopardize their very existence. \n\n\n\nDirector:\n Jon M. Chu \n\nWriters:\n Rhett Reese, Paul Wernick \n\nStars:\n Dwayne Johnson, D.J. Cotrona, Channing Tatum\n\nGenres:\n  Action |  Adventure |  Sci-Fi |  Thriller \n\nCountry:\n USA \n\nLanguage:\n English \n\n\n\n\n\nFormat                                   : AVI\nFormat/Info                              : Audio Video Interleave\nFile size                                : 699 MiB\nDuration                                 : 1h 40mn\nOverall bit rate                         : 969 Kbps\nWriting application                      : Lavf54.59.103\n\nVideo\nID                                       : 0\nFormat                                   : MPEG-4 Visual\nFormat profile                           : Simple@L3\nFormat settings, BVOP                    : No\nFormat settings, QPel                    : No\nFormat settings, GMC                     : No warppoints\nFormat settings, Matrix                  : Default (H.263)\nCodec ID                                 : XVID\nCodec ID/Hint                            : XviD\nDuration                                 : 1h 40mn\nBit rate                                 : 895 Kbps\nWidth                                    : 640 pixels\nHeight                                   : 272 pixels\nDisplay aspect ratio                     : 2.35:1\nFrame rate                               : 23.976 fps\nColor space                              : YUV\nChroma subsampling                       : 4:2:0\nBit depth                                : 8 bits\nScan type                                : Progressive\nCompression mode                         : Lossy\nBits/(Pixel*Frame)                       : 0.214\nStream size                              : 645 MiB (92%)\nWriting library                          : XviD 64\n\nAudio\nID                                       : 1\nFormat                                   : AC-3\nFormat/Info                              : Audio Coding 3\nMode extension                           : CM (complete main)\nFormat settings, Endianness              : Big\nCodec ID                                 : 2000\nDuration                                 : 1h 40mn\nBit rate mode                            : Constant\nBit rate                                 : 64.0 Kbps\nChannel(s)                               : 2 channels\nChannel positions                        : Front: L R\nSampling rate                            : 48.0 KHz\nBit depth                                : 16 bits\nCompression mode                         : Lossy\nStream size                              : 46.1 MiB (7%)\nAlignment                                : Aligned on interleaves\nInterleave, duration                     : 32 ms (0.77 video frame)\n\n\n\n\n    &lt;a href=&quot;\thttp://www.shotpix.com/images/11925944974643073693.png&quot; rel=&quot;nofollow&quot; target=&quot;_NEW&quot;&gt;\thttp://www.shotpix.com/images/11925944974643073693.png&lt;/a&gt;\n    &lt;a href=&quot;\thttp://www.shotpix.com/images/03057005595964603349.png&quot; rel=&quot;nofollow&quot; target=&quot;_NEW&quot;&gt;\thttp://www.shotpix.com/images/03057005595964603349.png&lt;/a&gt;\n    &lt;a href=&quot;\thttp://www.shotpix.com/images/90812716298040722522.png&quot; rel=&quot;nofollow&quot; target=&quot;_NEW&quot;&gt;\thttp://www.shotpix.com/images/90812716298040722522.png&lt;/a&gt;\n    &lt;a href=&quot;\thttp://www.shotpix.com/images/62796962744979921867.png&quot; rel=&quot;nofollow&quot; target=&quot;_NEW&quot;&gt;\thttp://www.shotpix.com/images/62796962744979921867.png&lt;/a&gt;\n    &lt;a href=&quot;\thttp://www.shotpix.com/images/08219064698595439590.png&quot; rel=&quot;nofollow&quot; target=&quot;_NEW&quot;&gt;\thttp://www.shotpix.com/images/08219064698595439590.png&lt;/a&gt;\n    &lt;a href=&quot;\thttp://www.shotpix.com/images/33250109340264634637.png&quot; rel=&quot;nofollow&quot; target=&quot;_NEW&quot;&gt;\thttp://www.shotpix.com/images/33250109340264634637.png&lt;/a&gt;\n    &lt;a href=&quot;\thttp://www.shotpix.com/images/64109799514777564805.png&quot; rel=&quot;nofollow&quot; target=&quot;_NEW&quot;&gt;\thttp://www.shotpix.com/images/64109799514777564805.png&lt;/a&gt;\n    &lt;a href=&quot;\thttp://www.shotpix.com/images/06906169807991091412.png&quot; rel=&quot;nofollow&quot; target=&quot;_NEW&quot;&gt;\thttp://www.shotpix.com/images/06906169807991091412.png&lt;/a&gt;\n    &lt;a href=&quot;\thttp://www.shotpix.com/images/18155496854736096287.png&quot; rel=&quot;nofollow&quot; target=&quot;_NEW&quot;&gt;\thttp://www.shotpix.com/images/18155496854736096287.png&lt;/a&gt;\n    &lt;a href=&quot;\thttp://www.shotpix.com/images/24196421526689308181.png&quot; rel=&quot;nofollow&quot; target=&quot;_NEW&quot;&gt;\thttp://www.shotpix.com/images/24196421526689308181.png&lt;/a&gt;\n\n","torrent":{"xt":"urn:btih:45984e5c53b199a20c7fb4e190b977b85e2345f7","amp;dn":"G.I.+Joe+Retaliation+2013+TS+NEWSOURCE+XviD+AC3+-+TODE","amp;tr":["udp%3A%2F%2Ftracker.openbittorrent.com%3A80","udp%3A%2F%2Fopen.demonii.com%3A1337","udp%3A%2F%2Ftracker.coppersurfer.tk%3A6969","udp%3A%2F%2Fexodus.desync.com%3A6969"],"infoHash":"45984e5c53b199a20c7fb4e190b977b85e2345f7","infoHashBuffer":{"type":"Buffer","data":[69,152,78,92,83,177,153,162,12,127,180,225,144,185,119,184,94,35,69,247]},"announce":[],"urlList":[]}}